<?xml version="1.0" encoding="utf-8"?>
<!-- Generator: Adobe Illustrator 25.2.1, SVG Export Plug-In . SVG Version: 6.00 Build 0)  -->
<svg version="1.1" id="Capa_1" xmlns="http://www.w3.org/2000/svg" xmlns:xlink="http://www.w3.org/1999/xlink" x="0px" y="0px"
	 viewBox="0 0 500 500" style="enable-background:new 0 0 500 500;" xml:space="preserve">
<style type="text/css">
	.st0{fill:none;}
	.st1{fill:#FAFAFA;}
	.st2{fill:#DFDFDF;}
	.st3{fill:#9D2DFF;}
	.st4{fill:#FFFFFF;}
	.st5{fill:#1022E6;}
	.st6{fill:#7ED321;}
	.st7{fill:#4A90E2;}
	.st8{fill:#D0021B;}
	.st9{fill:#253138;}
	.st10{fill:#EBEBEB;}
	.st11{fill:#F5F5F5;}
	.st12{fill:#C6C6C6;}
	.st13{fill:#455A63;}
	.st14{clip-path:url(#SVGID_2_);}
	.st15{clip-path:url(#SVGID_4_);fill:#FFBD9D;}
	.st16{clip-path:url(#SVGID_4_);fill:#DDDDDD;}
	.st17{clip-path:url(#SVGID_4_);fill:#C2C2C2;}
	.st18{clip-path:url(#SVGID_4_);fill:#EB996D;}
	.st19{fill:#DDDDDD;}
	.st20{fill:#515151;}
	.st21{fill:#C2C2C2;}
	.st22{fill:#9B9B9B;}
	.st23{fill:#282828;}
	.st24{fill:#939393;}
	.st25{fill-opacity:0;stroke:#E8505B;stroke-width:3.8648;stroke-miterlimit:3.8648;}
	.st26{fill-opacity:0;stroke:#E8505B;stroke-width:1.9746;stroke-miterlimit:1.9746;}
</style>
<rect class="st0" width="500" height="500"/>
<path class="st1" d="M182.2,23.9l4.7,8.6l8.6,4.7l-8.6,4.7l-4.7,8.6l-4.7-8.6l-8.6-4.7l8.6-4.7L182.2,23.9z"/>
<path class="st1" d="M377.9,256.3l3.5,6.4l6.4,3.5l-6.4,3.5l-3.5,6.4l-3.5-6.4l-6.4-3.5l6.4-3.5L377.9,256.3z"/>
<path class="st1" d="M387.8,224.5l1.6,2.9l2.9,1.6l-2.9,1.6l-1.6,2.9l-1.6-2.9l-2.9-1.6l2.9-1.6L387.8,224.5z"/>
<path class="st1" d="M148.7,27.1l1.6,2.9l2.9,1.6l-2.9,1.6l-1.6,2.9l-1.6-2.9l-2.9-1.6l2.9-1.6L148.7,27.1z"/>
<path class="st1" d="M69.1,296.8c3.6-1.6,6.1-5.3,6.1-9.7c-0.1-5.7-4.4-10.3-9.8-10.3c-5.4,0-9.7,4.7-9.6,10.5
	c0,4.4,2.7,8.1,6.3,9.6c-14.9,2.4-14,18.7-14,18.7l35.4-0.3C83.4,315.3,84,298.8,69.1,296.8z"/>
<path class="st1" d="M408.6,403.9c-0.5-2.5-3-4.5-5.6-4.4c-2.6,0.1-4.9,2.2-5.3,4.8c-0.4-2.5-2.7-4.7-5.3-4.7
	c-2.6-0.1-5.1,1.9-5.6,4.5c-0.3,1.9,0.3,3.8,1.3,5.4c1,1.6,2.5,2.9,3.9,4.1c2,1.8,3.8,3.4,5.8,5.2c2-1.8,3.6-3.4,5.6-5.2
	c1.4-1.3,2.8-2.6,3.8-4.1C408.4,407.7,409,405.8,408.6,403.9z"/>
<path class="st1" d="M431.7,193.2l3.8-0.8l6-13.2l-1.5-7.6c0,0,5.8-1.5,7.1,8.5c1.3,10.1,1.5,7.4,1.5,7.4s12.5-2.4,13.7-1.5
	c0.9,0.6,3.7,12.9,5.2,19.6c0.7,3.4-0.7,6.9-3.7,8.3c-0.4,0.2-0.9,0.4-1.3,0.4c-3.1,0.6-19.5,1.2-19.5,1.2l-6.6,1.3L431.7,193.2z"/>
<path class="st2" d="M420.4,193.2l7.5,25.5l6.5-1.3l-5-25.4L420.4,193.2z"/>
<path class="st3" d="M108,407.6L108,407.6c-19.8,4.7-39.6-7.5-44.3-27.3C59,360.6,71.2,340.7,91,336c19.8-4.7,39.6,7.5,44.3,27.3
	C140,383.1,127.8,402.9,108,407.6z"/>
<path class="st4" d="M95.7,355.7c5.2-1.2,5.9-1.4,8-1.8c1.9-0.4,3.1-0.3,3.8-0.2c1,0.1,1.8,0.4,2.6,0.9c0.8,0.5,1.4,1.1,2,1.9
	c0.4,0.6,1,1.6,1.5,3.5c0.6,2,0.8,2.7,2,7.9c1.2,5.2,1.4,5.9,1.8,8c0.4,1.9,0.3,3.1,0.2,3.8c-0.1,1-0.4,1.8-0.9,2.6
	c-0.5,0.9-1.1,1.4-1.9,2c-0.6,0.4-1.6,1-3.5,1.5c-2,0.6-2.7,0.8-7.9,2c-5.2,1.2-5.9,1.4-8,1.8c-1.9,0.4-3.1,0.3-3.8,0.2
	c-1-0.1-1.8-0.4-2.6-0.9c-0.8-0.5-1.4-1.1-2-1.9c-0.4-0.6-1-1.6-1.5-3.5c-0.6-2-0.8-2.7-2-7.9s-1.4-5.9-1.8-8
	c-0.4-1.9-0.3-3.1-0.2-3.8c0.1-1,0.4-1.8,0.9-2.6c0.5-0.9,1.1-1.4,1.9-2c0.6-0.4,1.6-1,3.5-1.5C89.8,357.1,90.4,357,95.7,355.7z
	 M94.8,352.2c-5.3,1.3-6,1.5-8.1,2c-2.1,0.6-3.4,1.3-4.5,2c-1.2,0.8-2.1,1.7-2.9,3.1c-0.8,1.4-1.2,2.6-1.4,4c-0.2,1.4-0.2,2.9,0.2,5
	c0.4,2.1,0.5,2.8,1.8,8.1c1.3,5.3,1.5,6,2,8.1c0.6,2.1,1.3,3.4,2,4.5c0.8,1.2,1.7,2.1,3.1,2.9c1.4,0.8,2.6,1.2,4,1.4
	c1.4,0.2,2.9,0.2,5-0.2c2.1-0.4,2.8-0.5,8.1-1.8c5.3-1.3,6-1.5,8.1-2c2.1-0.6,3.4-1.3,4.5-2c1.2-0.8,2.1-1.7,2.9-3.1
	c0.8-1.4,1.2-2.6,1.4-4c0.2-1.4,0.2-2.9-0.2-5c-0.4-2.1-0.5-2.8-1.8-8.1c-1.3-5.3-1.5-6-2-8.1c-0.6-2.1-1.3-3.4-2-4.5
	c-0.8-1.2-1.7-2.1-3.1-2.9c-1.4-0.8-2.6-1.2-4-1.4c-1.4-0.2-2.9-0.2-5,0.2C100.8,350.8,100.2,350.9,94.8,352.2z"/>
<path class="st4" d="M97.1,361.7c-5.6,1.3-9,6.9-7.7,12.5c1.3,5.6,6.9,9,12.5,7.7s9-6.9,7.7-12.5
	C108.3,363.8,102.7,360.4,97.1,361.7z M101.1,378.4c-3.6,0.9-7.2-1.4-8.1-5c-0.9-3.6,1.4-7.2,5-8.1c3.6-0.9,7.2,1.4,8.1,5
	C106.9,373.9,104.7,377.5,101.1,378.4z"/>
<path class="st4" d="M109.8,358.3c0.3,1.3-0.5,2.6-1.8,2.9c-1.3,0.3-2.6-0.5-2.9-1.8c-0.3-1.3,0.5-2.6,1.8-2.9
	C108.2,356.2,109.5,357,109.8,358.3z"/>
<path class="st5" d="M386.8,375.2L386.8,375.2c-9.5,0-17.2-7.7-17.2-17.2s7.7-17.2,17.2-17.2s17.2,7.7,17.2,17.2
	S396.3,375.2,386.8,375.2z"/>
<path class="st4" d="M384.2,368.4h4.2V358h2.9l0.3-3.5h-3.2v-2c0-0.8,0.2-1.2,1-1.2h2.3v-3.6h-2.9c-3.1,0-4.5,1.4-4.5,4v2.8H382v3.5
	h2.2V368.4z"/>
<path class="st6" d="M434,297.8L434,297.8c-14.5-5.5-21.7-21.7-16.2-36.2c5.5-14.5,21.7-21.7,36.2-16.2s21.7,21.7,16.2,36.2
	C464.7,296,448.5,303.3,434,297.8z"/>
<path class="st4" d="M458.6,276.3c2.7-7.6-1.2-16.1-8.9-19c-7.6-2.9-16,0.7-19.2,8c-0.1,0.2-0.2,0.4-0.2,0.6c-1,2.6-1.2,5.4-0.7,8
	l-5.4,6.5l8.8,0.5c1.6,1.9,3.7,3.4,6.1,4.3c7.8,3,16.5-0.9,19.4-8.6C458.6,276.6,458.6,276.5,458.6,276.3z M439.9,283.1
	c-2.4-0.9-4.4-2.5-5.8-4.4l-5.1-0.3l3.1-3.8c-0.7-2.5-0.6-5.2,0.4-7.8c0.1-0.4,0.3-0.8,0.5-1.1c2.9-5.7,9.7-8.5,15.9-6.1
	c6.2,2.4,9.5,9.1,7.7,15.4c-0.1,0.3-0.2,0.6-0.3,0.9C453.8,282.3,446.5,285.6,439.9,283.1z"/>
<path class="st4" d="M449.8,276.6c-0.3-0.3-1.7-1.8-1.9-2c-0.3-0.2-0.5-0.4-0.8-0.1c-0.4,0.3-1.3,0.8-1.6,0.9
	c-0.3,0.2-0.5,0.1-0.8-0.2c-0.3-0.3-1.3-1.1-2.1-2.8c-0.7-1.3-0.9-2.7-1-3.1c-0.1-0.4,0.2-0.5,0.4-0.6c0.2-0.1,0.5-0.3,0.8-0.4
	c0.1,0,0.1-0.1,0.2-0.1c0.1-0.1,0.2-0.2,0.4-0.3c0.2-0.2,0.2-0.4,0.2-0.6c0-0.2-0.1-2.2-0.1-3c0-0.8-0.4-0.8-0.6-0.9
	c-0.2-0.1-0.4-0.2-0.6-0.3c-0.2-0.1-0.6-0.1-1.1,0.1c-0.4,0.2-1.7,0.7-2.3,2.4c-0.2,0.4-0.2,0.8-0.3,1.2c-0.1,1.3,0.3,2.6,0.3,2.8
	c0.1,0.3,0.9,4.7,3.9,7.4c3,2.7,3.2,2.3,3.8,2.4c0.7,0.2,2.4,0,3-0.7c0.6-0.7,0.9-1.4,0.8-1.6C450.3,277.1,450.1,276.9,449.8,276.6z
	"/>
<path class="st7" d="M69.6,168.2L69.6,168.2c-11.8,0-21.4-9.6-21.4-21.4c0-11.8,9.6-21.4,21.4-21.4c11.8,0,21.4,9.6,21.4,21.4
	C91,158.7,81.4,168.2,69.6,168.2z"/>
<path class="st4" d="M58.2,154c2.1,1.3,4.5,2.1,7.2,2.1c8.7,0,13.6-7.3,13.3-13.9c0.9-0.7,1.7-1.5,2.3-2.4c-0.8,0.4-1.7,0.6-2.7,0.7
	c1-0.6,1.7-1.5,2.1-2.6c-0.9,0.5-1.9,0.9-3,1.1c-0.9-0.9-2.1-1.5-3.4-1.5c-3,0-5.2,2.8-4.5,5.7c-3.9-0.2-7.3-2.1-9.6-4.9
	c-1.2,2.1-0.6,4.8,1.4,6.2c-0.8,0-1.5-0.2-2.1-0.6c-0.1,2.2,1.5,4.2,3.7,4.6c-0.7,0.2-1.4,0.2-2.1,0.1c0.6,1.9,2.3,3.2,4.4,3.2
	C63.2,153.6,60.7,154.3,58.2,154z"/>
<path class="st8" d="M405.6,187.5L405.6,187.5c-20.2,9.8-44.5,1.4-54.3-18.8c-9.8-20.2-1.4-44.5,18.8-54.3
	c20.2-9.8,44.5-1.4,54.3,18.8C434.2,153.3,425.8,177.6,405.6,187.5z"/>
<path class="st4" d="M377.8,160c0.7,0,1.1-0.5,0.9-1.2c-0.1-0.5-0.4-1.7-0.5-2.3c-0.1-0.7-0.3-0.9-1-1.2c-1.6-0.7-3-1.9-4-4.1
	c-3.1-6.3-1.1-14.2,6.5-17.9c6.7-3.3,12.4-1,15,4.5c3.5,7.2,3.3,14.8-1.5,17.1c-2.6,1.3-5.6,0.1-6.3-2.9c-0.8-3.5-1-7.6-2.1-9.9
	c-1-2-2.9-3.2-5.2-2.1c-2.7,1.3-3.5,5.1-1.7,8.8c1.1,2.4,2.7,3.6,2.7,3.6s2.9,12.9,3.4,15.1c1,4.5,4.2,9,4.5,9.5
	c0.2,0.3,0.6,0.2,0.7-0.1c0.1-0.4,1.4-5.9,0.5-10.3c-0.2-1.3-1.6-7.7-1.6-7.7c1.7,1.2,4.9,1.5,7.6,0.1c8-3.9,9.9-13.8,5.1-23.6
	c-3.6-7.4-13.2-11.2-22.7-6.6c-11.8,5.8-13.7,17.2-10.2,24.2C370.1,157.2,373.6,160.3,377.8,160z"/>
<path class="st9" d="M328.3,470L190.4,470c-16.6,0-30-13.5-30-30l0.1-345.7c0-16.6,13.5-30,30.1-30l137.9,0.1c16.6,0,30,13.5,30,30
	L358.3,440C358.3,456.6,344.9,470.1,328.3,470z"/>
<path class="st4" d="M328.2,76.5l-26.7,0c-3.6,0-6.5,3-6.5,6.8l0,4.8c0,3.7-2.9,6.8-6.5,6.8l-52.1,0c-3.6,0-6.5-3-6.5-6.8v-4.8
	c0-3.7-2.9-6.8-6.5-6.8l-9.4,0l-23.4,0c-11.6,0-21,9.4-21,21l-0.1,337.4c0,11.6,9.4,21,21,21l137.6,0.1c11.6,0,21-9.4,21-21
	l0.1-337.4C349.3,85.9,339.8,76.5,328.2,76.5z"/>
<path class="st9" d="M330.2,103.9c0,0.1-3.5,0.2-7.8,0.2c-4.3,0-7.8,0-7.8-0.1c0-0.1,3.5-0.2,7.8-0.2
	C326.8,103.8,330.2,103.8,330.2,103.9z"/>
<path class="st9" d="M330.3,107.9c0,0.1-3.5,0.2-7.8,0.2c-4.3,0-7.8,0-7.8-0.1c0-0.1,3.5-0.2,7.8-0.2
	C326.8,107.8,330.3,107.8,330.3,107.9z"/>
<path class="st9" d="M330.3,111.9c0,0.1-3.5,0.2-7.8,0.2c-4.3,0-7.8,0-7.8-0.1c0-0.1,3.5-0.2,7.8-0.2
	C326.8,111.7,330.3,111.8,330.3,111.9z"/>
<path class="st9" d="M184,115.8c0,0,0.1,0,0.4,0c0.3,0,0.7,0,1.1,0c1.1,0,2.5-0.1,4.2-0.1l-0.1,0.1c0-0.9,0-1.9-0.1-3
	c0-0.6,0-1.1,0-1.7c0.1-0.6,0.7-1.2,1.4-1.3c0.7,0,1.3,0,2,0c0.8,0.1,1.4,0.8,1.4,1.6c0,1.4,0,2.9,0,4.4l-0.2-0.2
	c1.7,0,3.5,0,5.3-0.1l-0.2,0.2c0-2.1,0-4.3-0.1-6.6c0-0.6,0-1.1,0-1.7c0-0.5-0.3-0.9-0.7-1.2c-0.8-0.8-1.5-1.5-2.3-2.3
	c-0.8-0.7-1.5-1.5-2.2-2.2c-0.4-0.4-0.7-0.7-1.1-1.1c-0.4-0.4-0.7-0.7-1.1-0.8c-0.4-0.1-0.9,0-1.2,0.2c-0.3,0.3-0.7,0.7-1,1
	c-0.6,0.7-1.3,1.3-1.9,1.9c-1.2,1.2-2.4,2.4-3.3,3.4c-0.4,0.6-0.2,1.3-0.3,2c0,0.7,0,1.3,0,1.9c0,1.1,0,2.1,0,3c0,0.8,0,1.4,0,1.9
	C184,115.5,184,115.7,184,115.8c0,0,0-0.2,0-0.6c0-0.5,0-1.1-0.1-1.9c0-0.9,0-1.9-0.1-3c0-0.6,0-1.2,0-1.9c0-0.3,0-0.7,0-1
	c0-0.4,0.1-0.8,0.3-1.1c1-1.2,2.1-2.3,3.3-3.5c0.6-0.6,1.2-1.3,1.9-1.9c0.3-0.3,0.6-0.7,1-1c0.4-0.3,1-0.4,1.5-0.3
	c0.6,0.1,0.9,0.6,1.3,0.9c0.4,0.4,0.7,0.7,1.1,1.1c0.7,0.7,1.5,1.4,2.2,2.2c0.8,0.7,1.5,1.5,2.3,2.3c0.2,0.2,0.4,0.4,0.6,0.6
	c0.2,0.3,0.3,0.6,0.3,0.9c0,0.6,0,1.1,0,1.7c0,2.3,0,4.4,0.1,6.6l0,0.2h-0.2c-1.8,0-3.6,0-5.3,0l-0.2,0l0-0.2c0-1.5,0-3,0-4.4
	c0-0.6-0.5-1.2-1.1-1.3c-0.6,0-1.3,0-1.9,0c-0.6,0-1,0.5-1.1,1c-0.1,0.5,0,1.1,0,1.7c0,1.1,0,2.1,0,3v0.1l-0.1,0c-1.7,0-3.2,0-4.2,0
	c-0.4,0-0.8,0-1.1,0C184.1,115.8,184,115.8,184,115.8z"/>
<path class="st9" d="M334.6,413.5l-2.9-2.9l-2.8,2.8l0-8.4l5.7,0L334.6,413.5z M331.7,410.2L331.7,410.2l2.7,2.7l0-7.7l-5.2,0l0,7.5
	L331.7,410.2z"/>
<path class="st9" d="M256.4,412.4l-1-0.5c-0.5,0.3-0.9,0.4-1.3,0.4c-1.6,0-2.9-1.3-2.9-2.9c0-1.6,1.3-2.9,2.9-2.9
	c1.6,0,2.9,1.3,2.9,2.9c0,0.7-0.2,1.4-0.7,1.9L256.4,412.4z M254,406.8c-1.5,0-2.7,1.2-2.7,2.7c0,1.5,1.2,2.7,2.7,2.7
	c0.4,0,0.8-0.1,1.3-0.4l0,0l0.8,0.3l-0.2-0.8l0,0c0.5-0.5,0.7-1.2,0.7-1.8C256.7,408,255.5,406.8,254,406.8z"/>
<path class="st9" d="M263.1,412l-1.2-2.9l-2.2-2l5.4,0L263.1,412z M260.2,407.2l1.9,1.7l1,2.5l1.7-4.2L260.2,407.2z"/>
<path class="st9" d="M262.1,409.1l-0.1-0.2l2.9-1.9l0.1,0.2L262.1,409.1z"/>
<path class="st8" d="M247.9,407.7c-0.2-0.8-0.9-1.4-1.7-1.3c-0.8,0-1.5,0.7-1.6,1.5c-0.1-0.8-0.8-1.4-1.6-1.4
	c-0.8,0-1.5,0.6-1.7,1.4c-0.1,0.6,0.1,1.1,0.4,1.6c0.3,0.5,0.8,0.9,1.2,1.2c0.6,0.5,1.2,1,1.8,1.6c0.6-0.5,1.1-1,1.7-1.6
	c0.4-0.4,0.9-0.8,1.2-1.3C247.8,408.8,248,408.2,247.9,407.7z"/>
<path class="st9" d="M340.7,421c0,0,0-0.3,0-0.9c0-0.6,0-1.5,0-2.7c0-2.4,0-6,0-10.6c0-9.2-0.1-22.6-0.1-39.3l0.2,0.2
	c-38.5,0-95.9,0.1-159.9,0.1h0l0.3-0.3c0,18.6,0,36.7,0,53.6l-0.3-0.3c46,0,86,0.1,114.4,0.1c14.2,0,25.6,0.1,33.4,0.1
	c3.9,0,6.9,0,9,0c1,0,1.8,0,2.3,0C340.4,421,340.7,421,340.7,421s-0.3,0-0.8,0c-0.5,0-1.3,0-2.3,0c-2,0-5,0-8.9,0
	c-7.8,0-19.1,0-33.3,0.1c-28.5,0-68.5,0.1-114.6,0.1h-0.3V421c0-16.9,0-35,0-53.6v-0.3h0.3h0c64,0,121.4,0.1,159.9,0.1h0.2v0.2
	c0,16.8-0.1,30.2-0.1,39.4c0,4.6,0,8.1,0,10.5c0,1.2,0,2.1,0,2.7C340.7,420.7,340.7,421,340.7,421z"/>
<path class="st10" d="M231.7,376.6l-0.2,35.4l-44.3-0.3l0.2-35.4L231.7,376.6z"/>
<path class="st9" d="M231.7,376.6c0,0-0.1,0-0.2,0c-0.2,0-0.4,0-0.6,0c-0.6,0-1.4,0-2.4,0c-2.1,0-5.2,0-9.1,0
	c-7.8,0-18.8,0-31.9-0.1l0.2-0.2c-0.1,10.5-0.1,22.6-0.2,35.4c0.1,0.1-0.5-0.5-0.3-0.3h0h0h0l0.1,0l0.2,0l0.4,0l0.8,0l1.5,0
	c1,0,2,0,3,0c2,0,4,0,6,0c3.9,0,7.8,0,11.5,0.1c7.4,0.1,14.4,0.1,20.7,0.1l-0.2,0.2c0.1-10.6,0.2-19.5,0.3-25.7
	c0-3.1,0.1-5.5,0.1-7.2c0-0.8,0-1.4,0-1.9C231.7,376.9,231.7,376.6,231.7,376.6s0,0.2,0,0.6c0,0.4,0,1.1,0,1.9c0,1.7,0,4.1,0,7.1
	c0,6.2,0,15.1,0,25.8v0.2l-0.2,0c-6.3,0-13.3-0.1-20.7-0.1c-3.7,0-7.6,0-11.5-0.1c-2,0-4,0-6,0c-1,0-2,0-3,0l-1.5,0l-0.8,0l-0.4,0
	l-0.2,0h-0.1l0,0h0h0c0.2,0.2-0.3-0.3-0.3-0.3c0.1-12.8,0.2-24.9,0.2-35.4l0-0.2l0.2,0c13.2,0.1,24.3,0.2,32.1,0.3
	c3.9,0,6.9,0.1,9,0.1c1,0,1.8,0,2.4,0c0.2,0,0.4,0,0.6,0C231.6,376.6,231.7,376.6,231.7,376.6z"/>
<path class="st2" d="M188.7,409.6l41.2,0.2l0.2-31l-41.2-0.2L188.7,409.6z"/>
<path class="st11" d="M188.7,409.6l14.5-19.2l8.8,12.1l6.1-6.4l11.8,13.7L188.7,409.6z"/>
<path class="st11" d="M215.9,388.1c0,1.8-1.5,3.2-3.3,3.2c-1.8,0-3.2-1.5-3.2-3.3c0-1.8,1.5-3.2,3.3-3.2
	C214.5,384.9,215.9,386.3,215.9,388.1z"/>
<path class="st9" d="M327.5,342.7l-4.4-4.4l-4.2,4.1l0-12.5l8.5,0L327.5,342.7z M323.2,337.7l0.1,0.1l3.8,3.9l0-11.4l-7.8,0l0,11.2
	L323.2,337.7z"/>
<path class="st9" d="M216.7,341.3l-2-0.9c-1,0.5-1.9,0.8-2.6,0.8c-3.1,0-5.7-2.5-5.7-5.6c0-3.1,2.5-5.7,5.6-5.7
	c3.1,0,5.7,2.5,5.7,5.6c0,1.4-0.5,2.7-1.4,3.8L216.7,341.3z M211.9,330.3c-2.9,0-5.3,2.4-5.2,5.3c0,2.9,2.4,5.3,5.3,5.2
	c0.7,0,1.6-0.3,2.5-0.8l0.1,0l1.5,0.7l-0.3-1.5l0.1-0.1c0.9-1,1.4-2.3,1.4-3.6C217.2,332.6,214.8,330.3,211.9,330.3z"/>
<path class="st9" d="M229.8,340.5l-2.3-5.7l-4.4-4l10.6-0.1L229.8,340.5z M224.1,331.1l3.7,3.4l2,4.9l3.3-8.4L224.1,331.1z"/>
<path class="st9" d="M227.9,334.8l-0.2-0.3l5.8-3.8l0.2,0.3L227.9,334.8z"/>
<path class="st8" d="M199.9,331.9c-0.3-1.5-1.8-2.7-3.4-2.6c-1.5,0.1-2.9,1.3-3.1,2.9c-0.2-1.5-1.6-2.8-3.2-2.8
	c-1.5,0-3,1.2-3.3,2.7c-0.2,1.1,0.2,2.3,0.8,3.2c0.6,0.9,1.5,1.7,2.3,2.4c1.2,1,2.3,2,3.5,3.1c1.2-1.1,2.2-2.1,3.3-3.1
	c0.8-0.8,1.7-1.5,2.3-2.5C199.8,334.2,200.2,333.1,199.9,331.9z"/>
<path class="st10" d="M206.2,146.9c0,4-3.2,7.2-7.2,7.2c-4,0-7.2-3.2-7.2-7.2c0-4,3.2-7.2,7.2-7.2
	C202.9,139.7,206.2,142.9,206.2,146.9z"/>
<path class="st9" d="M254.1,435.3c0,1.6-1.3,2.9-2.9,2.9c-1.6,0-2.9-1.3-2.9-2.9c0-1.6,1.3-2.9,2.9-2.9
	C252.9,432.4,254.1,433.7,254.1,435.3z"/>
<path class="st9" d="M263,435.3c0,1.6-1.3,2.9-2.9,2.9c-1.6,0-2.9-1.3-2.9-2.9c0-1.6,1.3-2.9,2.9-2.9
	C261.8,432.4,263,433.7,263,435.3z"/>
<path class="st9" d="M271.9,435.4c0,1.6-1.3,2.9-2.9,2.9c-1.6,0-2.9-1.3-2.9-2.9c0-1.6,1.3-2.9,2.9-2.9S271.9,433.8,271.9,435.4z"/>
<path class="st12" d="M181.7,259l159.9,0l0-97.8l-159.9,0L181.7,259z"/>
<path class="st11" d="M196.5,259l45.8-61.3l28.4,38.4l19.3-20.5l37.8,43.5L196.5,259z"/>
<path class="st11" d="M282.7,190.1c0,5.7-4.6,10.3-10.3,10.3c-5.7,0-10.3-4.6-10.3-10.3c0-5.7,4.6-10.3,10.3-10.3
	C278.1,179.8,282.7,184.4,282.7,190.1z"/>
<path class="st9" d="M341.2,349.9c0-2.1-0.1-90.4-0.2-221.2l0.2,0.2c-48.2,0-102.6,0-159.9,0h0l0.3-0.3c0,82.7,0,159.3,0,221.2
	l-0.2-0.2C278.2,349.8,339.4,349.9,341.2,349.9c-1.7,0-62.9,0.1-159.9,0.2l-0.2,0v-0.2c0-61.9,0-138.5,0-221.2v-0.3h0.3h0
	c57.3,0,111.7,0,159.9,0h0.2v0.2c0,65.5-0.1,120.8-0.1,159.8c0,19.5,0,34.8-0.1,45.4c0,5.2,0,9.3,0,12c0,1.4,0,2.4,0,3.1
	C341.2,349.5,341.2,349.9,341.2,349.9z"/>
<path class="st13" d="M303.2,397c0,0.1-14.6,0.3-32.5,0.3c-18,0-32.5-0.1-32.5-0.3c0-0.1,14.6-0.3,32.5-0.3
	C288.7,396.7,303.2,396.8,303.2,397z"/>
<path class="st13" d="M332.8,388.5c0,0.1-21.2,0.3-47.3,0.3c-26.1,0-47.3-0.1-47.3-0.3c0-0.1,21.2-0.3,47.3-0.3
	C311.6,388.2,332.8,388.3,332.8,388.5z"/>
<path class="st13" d="M275,379.4c0,0-0.5,0.1-1.4,0.1c-1,0-2.4,0-3.9,0.1c-3.3,0-7.9,0.1-13,0.1c-5.1,0-9.7,0-13-0.1
	c-1.6,0-2.9-0.1-3.9-0.1c-0.9,0-1.4-0.1-1.4-0.1c0,0,0.5-0.1,1.4-0.1c1,0,2.4,0,3.9-0.1c3.3,0,7.9-0.1,13-0.1c5.1,0,9.7,0,13,0.1
	c1.6,0,2.9,0.1,3.9,0.1C274.5,379.3,275,379.4,275,379.4z"/>
<path class="st13" d="M263.2,312.7c0,0.1-16.5,0.3-36.8,0.3c-20.3,0-36.8-0.1-36.8-0.3s16.5-0.3,36.8-0.3
	C246.7,312.4,263.2,312.5,263.2,312.7z"/>
<path class="st13" d="M324.8,301.3c0,0.1-30.3,0.3-67.6,0.3c-37.3,0-67.6-0.1-67.6-0.3c0-0.1,30.3-0.3,67.6-0.3
	C294.5,301,324.8,301.1,324.8,301.3z"/>
<path class="st13" d="M324.8,290c0,0.1-30.3,0.3-67.6,0.3c-37.3,0-67.6-0.1-67.6-0.3s30.3-0.3,67.6-0.3
	C294.5,289.7,324.8,289.9,324.8,290z"/>
<path class="st9" d="M262.1,146.9c0,0-0.2,0-0.5,0.1c-0.4,0-0.8,0-1.4,0c-1.3,0-2.9,0-5,0.1c-4.2,0-10,0.1-16.5,0.1
	c-6.4,0-12.3,0-16.5-0.1c-2,0-3.7-0.1-5-0.1c-0.5,0-1,0-1.4,0c-0.3,0-0.5,0-0.5-0.1c0,0,0.2,0,0.5-0.1c0.4,0,0.8,0,1.4,0
	c1.3,0,2.9,0,5-0.1c4.2,0,10-0.1,16.5-0.1c6.4,0,12.2,0,16.5,0.1c2,0,3.7,0.1,5,0.1c0.5,0,1,0,1.4,0
	C261.9,146.8,262.1,146.9,262.1,146.9z"/>
<g>
	<defs>
		<rect id="SVGID_1_" width="500" height="500"/>
	</defs>
	<clipPath id="SVGID_2_">
		<use xlink:href="#SVGID_1_"  style="overflow:visible;"/>
	</clipPath>
	<g class="st14">
		<defs>
			<path id="SVGID_3_" d="M244,164c-6,4-48,44-56,44s-28,30-28,30l3.7,54.8v138.1l25.5,27l39.3-1l18.5-0.5h21l31.5,1l29-2l13.5-1
				c0,0,10.5-9.5,11-15.5s1.5-30,2-38.5S354,276,354,276l-26-70C328,206,250,160,244,164"/>
		</defs>
		<clipPath id="SVGID_4_">
			<use xlink:href="#SVGID_3_"  style="overflow:visible;"/>
		</clipPath>
		<path class="st15" d="M266,377.3l3.5-11.9c0.6-2.6,1.4-5.6,2.5-9.1c1-3.1,3.5-6.4,5.9-8.8c3.6-3.7,5.3-3.7,7.8-5.6
			c0.2-0.1,0.5-0.3,0.7-0.5c0.5-0.3,0.9-0.6,1.2-1c2.1-2.3,0.1-5.8-4.2-5.4c-3.2,0.3-8.4,1.2-16.9,9.9c-0.1,0.1-0.2,0.2-0.3,0.4
			c-4.5,5.8-8.6-10.7-9.4-16.9c-0.5-4-4.8-6.4-8.7-5l-20.7,9.7c-1.7-0.6-3.7-0.5-6,0.2c-3,1.1-4.7,4.3-3.9,7.3l8.4,33.5l-24.6,81.9
			h53L266,377.3z"/>
		<path class="st16" d="M306.8,302.1l-16.4,32.1l-8.2-2.3L241,365.5c-3.5,2.9-8.6,2.4-11.6-1l-15.7-18.2c0,0,31.6-13.6,37.5-24.9
			c5.9-11.3-0.9-13.8-0.9-13.8l14.9-16.9L306.8,302.1z"/>
		<path class="st17" d="M218.7,344c1.9,3.5,3.8,7,6.7,9.7c2.8,2.8,6.7,4.7,10.6,4.3c3.9-0.4,7.6-3.7,7.7-7.6
			c1.9,1.4,4.8,0.6,6.3-1.1c1.6-1.8,2.1-4.2,2.3-6.6c2.6,1.5,6.1,0.3,7.8-2.1s1.8-5.7,1-8.6c-0.8-2.9-2.5-5.4-4.1-7.9
			c2,0.2,4.1,0.3,5.8-0.6c1.8-0.9,3-3.2,1.9-4.9c-0.6-1-1.8-1.5-2.9-1.8c-3.1-1-5.3-1.7-8.5-1.4c-0.7,0,1.3,8.5-18.9,20.1
			C222.6,342.4,218.7,344,218.7,344z"/>
		<path class="st18" d="M264.1,356.2c0,0.1-1.4-0.2-3.5-0.1c-2.2,0-5.2,0.5-8.2,2c-3,1.4-5.3,3.5-6.6,5.2c-1.4,1.7-2,2.9-2.1,2.8
			c0,0,0.1-0.3,0.4-0.9c0.3-0.5,0.8-1.3,1.4-2.2c1.3-1.7,3.6-3.9,6.7-5.4c3.1-1.5,6.2-1.9,8.4-1.9c1.1,0,2,0.1,2.6,0.2
			C263.8,356.1,264.1,356.2,264.1,356.2z"/>
		<path class="st15" d="M220,338.6c3.2,3.1,5.5,6.6,8.9,9.7c1.5,1.4,4,4.1,6,4.5c2.1,0.4,3.4,0.1,4.2-1.9c0.7-1.6-0.5-3.7-1.4-5
			c-2.2-3.4-4.2-6.1-5.9-8.7c-0.8-1.2,0.2-1.5,0.6-0.9c1.6,1.6,3.9,3,5.3,4.8c1.9,2.4,2.3,5.6,7.3,4.6c0.7-0.1,1.3-0.4,1.9-0.8
			c1.9-1.4,2-4,1.2-6c-0.6-1.6-1.7-2.9-2.8-4.2c2.1,2.4,4.5,5,7.9,5.2c2,0.2,4-0.8,4.8-2.6c1-2.3-0.4-4.5-1.9-6.3
			c-2.6-3.2-5.4-6.1-8.5-8.7c-1.2-1-2.6-1.5-4.1-1.5c-1.8,0-4,0.3-5,1.8c-2,2.8-1.4,5.2-1.4,5.2s-4.4-2.2-7.9,0.1
			c-3.5,2.3-4.4,6.4-4.4,6.4L220,338.6z"/>
		<path class="st15" d="M243.5,319.9c-1.4-1.4-1.7-3.9-0.6-6c0.8-1.5,1.7-2.9,2.7-3.2c4.2-1.4,22.5,1.8,22.3,5.8
			c-0.2,4.2-1.5,6-11.4,4.6c-1.7-0.3-4.5-0.6-4.5-0.6l-2.4,3.6L243.5,319.9z"/>
		<path class="st18" d="M246.7,336.9c-0.1,0.1-1.5-2.8-4.4-5.3c-2.8-2.6-5.8-3.7-5.7-3.8c0-0.1,0.8,0.1,1.9,0.7
			c1.2,0.5,2.7,1.5,4.1,2.8c1.4,1.3,2.5,2.7,3.2,3.8C246.5,336.1,246.8,336.9,246.7,336.9z"/>
		<path class="st18" d="M249.8,324.4c-0.1,0.1-1.3-0.9-2.9-1.9c-0.8-0.5-1.6-0.9-2.1-1.2c-0.6-0.3-0.9-0.3-0.9-0.4
			c0-0.1,0.4-0.1,1.1,0.1c0.6,0.2,1.5,0.6,2.3,1.1C248.8,323.1,249.9,324.3,249.8,324.4z"/>
		<path class="st18" d="M252.9,320.6c0,0.1-1.6,0.2-3.5-0.4c-1-0.3-1.8-0.8-2.3-1.2c-0.5-0.4-0.7-0.8-0.7-0.8c0.1-0.1,1.2,1,3.1,1.5
			C251.3,320.3,252.9,320.4,252.9,320.6z"/>
		<path class="st18" d="M235.1,341.9c-0.1,0-0.7-0.8-1.7-2.2c-1-1.4-2.2-3.4-4.3-4.9c-2-1.5-4.4-1.8-6.1-1.6
			c-1.6,0.2-2.5,0.9-2.6,0.8c0,0,0.2-0.2,0.6-0.5c0.4-0.3,1.1-0.5,1.9-0.7c1.7-0.3,4.3,0,6.4,1.5c2.2,1.6,3.4,3.7,4.3,5.1
			C234.6,341,235.2,341.9,235.1,341.9z"/>
		<path class="st18" d="M249.1,382.4c0,0.1-3.3,0.6-7.5,1.1c-4.2,0.5-7.5,0.7-7.5,0.6c0-0.1,3.3-0.6,7.5-1.1
			C245.7,382.5,249.1,382.3,249.1,382.4z"/>
	</g>
</g>
<path class="st19" d="M285.5,236.4c0,0-24-5.3-57.8-37.8C194,166.2,178.1,123,174,123.2c-4.1,0.2-22.2-8.2-56.5,66.5
	c-34.3,74.7-20.8,92-14,91.9c6.8-0.1,53.2-13.1,82.2-9.8c29,3.3,66.2,18.4,66.2,18.4L285.5,236.4z"/>
<path class="st20" d="M336.7,279.6l-8.2,15.6l-3.7,7c-5,9.6-16.7,13.5-26.5,9l-51.4-17.9l30-68.4l51.4,27.4
	C338.1,257.4,341.9,269.7,336.7,279.6z"/>
<path class="st21" d="M340.9,299.7l-13.9-4.4l8.6-16.4l10.5,6.5L340.9,299.7z"/>
<path class="st4" d="M120.2,191.1c-18.3,40.5-25.9,76.5-17,80.5c8.9,4,30.9-25.5,49.2-66c18.3-40.5,25.9-76.5,17-80.5
	C160.5,121.1,138.5,150.7,120.2,191.1z"/>
<path class="st22" d="M179.7,148.5c0.1,0-0.2,1.9-0.8,5.4c-0.7,3.4-1.6,8.4-2.9,14.6c-0.9,3-1.8,6.3-2.9,9.9
	c-0.5,1.8-1.1,3.6-1.6,5.5c-0.3,0.9-0.6,1.9-0.9,2.9c-0.3,1-0.7,1.9-1.1,2.9c-1.5,3.9-3.1,7.9-4.7,12.2c-0.4,1.1-0.8,2.1-1.2,3.2
	c-0.4,1.1-1,2.1-1.5,3.2c-1,2.1-2.1,4.2-3.1,6.4c-1.1,2.2-2.1,4.3-3.1,6.4c-0.5,1-1,2.1-1.6,3.1c-0.6,1-1.2,2-1.7,2.9
	c-2.3,3.9-4.5,7.6-6.6,11.2c-0.5,0.9-1,1.8-1.6,2.6c-0.6,0.8-1.2,1.6-1.7,2.4c-1.1,1.6-2.3,3.2-3.3,4.7c-2.1,3-4.1,5.8-6,8.4
	c-4,4.8-7.3,8.6-9.6,11.3c-2.3,2.6-3.6,4.1-3.7,4c-0.1-0.1,1-1.6,3.2-4.4c2.2-2.8,5.4-6.8,9.2-11.7c1.8-2.6,3.7-5.4,5.8-8.4
	c1-1.5,2.1-3.1,3.2-4.7c0.6-0.8,1.1-1.6,1.7-2.4c0.5-0.8,1-1.7,1.6-2.6c2.1-3.6,4.3-7.3,6.5-11.2c0.6-1,1.1-1.9,1.7-2.9
	c0.6-1,1-2.1,1.5-3.1c1-2.1,2-4.2,3.1-6.4c1-2.1,2.1-4.3,3.1-6.3c0.5-1.1,1.1-2.1,1.5-3.1c0.4-1.1,0.8-2.1,1.2-3.2
	c1.7-4.2,3.3-8.2,4.8-12c0.4-1,0.8-1.9,1.1-2.8c0.3-1,0.6-1.9,0.9-2.8c0.6-1.9,1.1-3.7,1.7-5.4c1.1-3.5,2.1-6.8,3.1-9.8
	c1.5-6,2.6-10.9,3.5-14.4C179,150.4,179.5,148.5,179.7,148.5z"/>
<path d="M335.6,278.9l-8.6,16.4l2.9,0.9l7-16.5L335.6,278.9z"/>
<path class="st23" d="M326,282.6c-0.2,0.5-7.2-2.3-15.5-6c-8.4-3.8-15-7.2-14.8-7.7c0.2-0.5,7.2,2.3,15.5,6
	C319.6,278.8,326.2,282.2,326,282.6z"/>
<path class="st23" d="M330.3,272.9c-0.2,0.4-6.5-2.2-14.1-5.9c-7.6-3.7-13.5-7.1-13.3-7.5c0.2-0.4,6.5,2.2,14.1,5.9
	C324.6,269.1,330.5,272.4,330.3,272.9z"/>
<path class="st23" d="M320.6,292.9c-0.1,0.2-1.7-0.1-4.4-1c-1.3-0.4-2.9-0.9-4.6-1.5c-1.7-0.6-3.5-1.5-5.4-2.4
	c-7.6-3.5-13.5-7-13.3-7.4c0.2-0.5,6.5,2.3,14,5.8c1.9,0.9,3.7,1.8,5.3,2.5c1.7,0.7,3.2,1.3,4.4,1.9
	C319.2,291.9,320.7,292.7,320.6,292.9z"/>
<path class="st24" d="M157.3,172.3c0,0-28.2-17.5-43.6,20.6c-15.4,38.1,14.2,44.3,14.2,44.3C140.1,218.4,150,196.8,157.3,172.3z"/>
<path class="st25" d="M20.8,197c-7.9-5.9-13.6-14.8-15.2-25.2c-3.4-21.4,11.2-41.4,32.6-44.8l0,0c3.9-0.6,7.8-0.6,11.6-0.1"/>
<path class="st26" d="M90.5,203.7c-4-3-6.9-7.5-7.8-12.9c-1.7-10.9,5.7-21.2,16.6-22.9l0,0c2-0.3,4-0.3,5.9-0.1"/>
</svg>
