<?xml version="1.0" encoding="utf-8"?>
<!-- Generator: Adobe Illustrator 25.2.1, SVG Export Plug-In . SVG Version: 6.00 Build 0)  -->
<svg version="1.1" id="Capa_1" xmlns="http://www.w3.org/2000/svg" xmlns:xlink="http://www.w3.org/1999/xlink" x="0px" y="0px"
	 viewBox="0 0 190.4 260.5" style="enable-background:new 0 0 190.4 260.5;" xml:space="preserve">
<style type="text/css">
	.st0{fill:none;}
	.st1{fill:#FFFFFF;}
	.st2{fill:#FFE000;}
</style>
<g>
	<g>
		<g>
			<line class="st0" x1="115.1" y1="210.9" x2="115.1" y2="210.9"/>
		</g>
		<g>
			<path class="st1" d="M166.2,186.9L166.2,186.9c11.5-9,18.3-23,18.3-38.7c0-0.5-0.1-142.3-0.1-142.3H86v116.9l0,0
				c0,0-59.9,42.5-60.9,43.3c-11.8,9-19.3,23.2-19.3,39.1c0,1.1,0,2.3,0.1,3.4c1.3,18.9,13.2,34.8,29.8,42c6,2.6,12.6,4,19.5,4
				c10.2,0,19.7-3.1,27.5-8.4C83.4,245.8,166.1,187,166.2,186.9L166.2,186.9"/>
			<path d="M55.2,260.5c-7.6,0-14.9-1.5-21.8-4.5c-9.2-4-17.2-10.4-23.1-18.6c-6-8.3-9.5-18.2-10.2-28.4C0,207.6,0,206.4,0,205.2
				c0-17.3,7.9-33.3,21.5-43.8c1-0.8,42.3-30.1,58.6-41.7V0h110.2v5.9c0,5.8,0.1,141.8,0.1,142.3c0,17.3-7.5,33.1-20.5,43.3
				l-0.6,0.4l-0.1,0.1c-19.9,14.1-82.4,58.6-83.1,59.1C76.9,257.3,66.2,260.5,55.2,260.5z M28.6,170.8
				c-10.7,8.3-16.9,20.9-16.9,34.4c0,0.9,0,1.9,0.1,3c1.1,16.3,11.2,30.5,26.2,37c5.4,2.3,11.2,3.5,17.2,3.5c8.7,0,17-2.5,24.2-7.4
				c1.8-1.2,55.1-39.2,83.3-59.2c10.1-8,15.9-20.4,15.9-34c0-0.6-0.1-109.6-0.1-136.4H91.9v114l-2.5,1.8
				C73.1,139.2,30.5,169.4,28.6,170.8z"/>
		</g>
	</g>
	<g>
		<g>
			<path class="st2" d="M171.8,177.6L171.8,177.6c8.5-6.7,13.5-16.9,13.5-28.5c0-0.1,0-12.2,0-28.2c-3.1-1-6.3-1.5-9.7-1.5
				c-17.6,0-31.8,14.2-31.8,31.8c0,14.3,9.4,26.4,22.4,30.4C169.7,179.2,171.8,177.7,171.8,177.6L171.8,177.6z"/>
			<path d="M167,186.5l-2.1-0.6c-7.2-2.2-13.7-6.8-18.3-12.9c-4.7-6.3-7.2-13.8-7.2-21.7c0-20,16.3-36.2,36.2-36.2
				c3.8,0,7.5,0.6,11,1.7l3.1,1v3.2c0,15.9,0,28,0,28.2c0,12.7-5.5,24.4-15.2,32l-0.5,0.4h-0.1L167,186.5z M175.6,123.9
				c-15.1,0-27.4,12.3-27.4,27.4c0,11.4,6.9,21.3,17.3,25.5l3.7-2.6c7.4-5.9,11.7-15,11.7-25c0-0.2,0-10.5,0-24.7
				C179.2,124,177.4,123.9,175.6,123.9z"/>
		</g>
	</g>
</g>
</svg>
