<?xml version="1.0" encoding="utf-8"?>
<!-- Generator: Adobe Illustrator 25.2.1, SVG Export Plug-In . SVG Version: 6.00 Build 0)  -->
<svg version="1.1" id="Capa_1" xmlns="http://www.w3.org/2000/svg" xmlns:xlink="http://www.w3.org/1999/xlink" x="0px" y="0px"
	 viewBox="0 0 1201.5 260.5" style="enable-background:new 0 0 1201.5 260.5;" xml:space="preserve">
<style type="text/css">
	.st0{fill:#FFFFFF;}
	.st1{fill:#FFE000;}
</style>
<g>
	<g>
		<g>
			<line class="st0" x1="115.3" y1="210.9" x2="115.3" y2="210.9"/>
		</g>
		<g>
			<path class="st0" d="M166.4,186.9L166.4,186.9c11.5-9,18.3-23,18.3-38.7c0-0.5-0.1-142.3-0.1-142.3H86.2l0,116.9l0,0
				c0,0-59.9,42.5-60.9,43.3C13.5,175.1,6,189.3,6,205.2c0,1.1,0,2.3,0.1,3.4c1.3,18.9,13.2,34.8,29.8,42c6,2.6,12.6,4,19.5,4
				c10.2,0,19.7-3.1,27.5-8.4C83.6,245.8,166.3,187,166.4,186.9L166.4,186.9"/>
			<path d="M55.4,260.5c-7.6,0-14.9-1.5-21.8-4.5c-9.2-4-17.2-10.4-23.1-18.6c-6-8.3-9.5-18.2-10.2-28.4c-0.1-1.4-0.1-2.6-0.1-3.8
				c0-17.3,7.9-33.3,21.5-43.8c1-0.8,42.3-30.1,58.6-41.7L80.3,0h110.2l0,5.9c0,5.8,0.1,141.8,0.1,142.3c0,17.3-7.5,33.1-20.5,43.3
				l-0.6,0.4l-0.1,0.1c-19.9,14.1-82.4,58.6-83.1,59.1C77.1,257.3,66.4,260.5,55.4,260.5z M28.8,170.8
				c-10.7,8.3-16.9,20.9-16.9,34.4c0,0.9,0,1.9,0.1,3c1.1,16.3,11.2,30.5,26.2,37c5.4,2.3,11.2,3.5,17.2,3.5c8.7,0,17-2.5,24.2-7.4
				c1.8-1.2,55.1-39.2,83.3-59.2c10.1-8,15.9-20.4,15.9-34c0-0.6-0.1-109.6-0.1-136.4H92.1l0,114l-2.5,1.8
				C73.3,139.2,30.7,169.4,28.8,170.8z"/>
		</g>
	</g>
	<g>
		<g>
			<path class="st1" d="M172,177.6L172,177.6c8.5-6.7,13.5-16.9,13.5-28.5c0-0.1,0-12.2,0-28.2c-3.1-1-6.3-1.5-9.7-1.5
				c-17.6,0-31.8,14.2-31.8,31.8c0,14.3,9.4,26.4,22.4,30.4C169.9,179.2,172,177.7,172,177.6L172,177.6z"/>
			<path d="M167.2,186.5l-2.1-0.6c-7.2-2.2-13.7-6.8-18.3-12.9c-4.7-6.3-7.2-13.8-7.2-21.7c0-20,16.3-36.2,36.2-36.2
				c3.8,0,7.5,0.6,11,1.7l3.1,1l0,3.2c0,15.9,0,28,0,28.2c0,12.7-5.5,24.4-15.2,32l-0.5,0.4l-0.1,0L167.2,186.5z M175.8,123.9
				c-15.1,0-27.4,12.3-27.4,27.4c0,11.4,6.9,21.3,17.3,25.5l3.7-2.6c7.4-5.9,11.7-15,11.7-25c0-0.2,0-10.5,0-24.7
				C179.4,124,177.6,123.9,175.8,123.9z"/>
		</g>
	</g>
</g>
<g>
	<g>
		<path d="M253.1,108.4c4.5-4.5,12.8-10.5,24.8-10.5c10.3,0,19.2,3.7,25.7,12.2c7-7.5,16.3-12.2,29.4-12.2c21.9,0,35,14.2,35,35.7
			v55.6h-24.1v-51.6c0-10.5-5.4-17.3-15-17.3c-11,0-18.2,7.3-18.2,19.4v49.5h-24v-51.6c0-10.5-5.4-17.3-15-17.3
			c-11,0-18.2,7.3-18.2,19.4v49.5h-24.3V99.4h24V108.4z"/>
	</g>
	<g>
		<path d="M547.5,182.5c-6.3,4.9-15.9,7.9-26.2,7.9c-24.5,0-45.3-19.8-45.3-45.7s20.8-46.2,45.3-46.2c10.3,0,19.9,3.1,26.2,8V69.3
			h24.3v119.8h-24.3V182.5z M547.8,144.7c0-13.3-11-24.1-24.5-24.1c-13.3,0-23.6,10.8-23.6,24.1c0,13.5,10.3,24.1,23.6,24.1
			C537.3,168.9,547.8,158.2,547.8,144.7z"/>
	</g>
	<g>
		<path d="M581.6,189.2V99.4h24.3v89.7H581.6z M578.8,83.1L578.8,83.1c0-7.6,6.2-13.7,13.7-13.7h2.4c7.6,0,13.7,6.2,13.7,13.7v0
			c0,7.6-6.2,13.7-13.7,13.7h-2.4C585,96.8,578.8,90.7,578.8,83.1z"/>
	</g>
	<g>
		<path d="M685.7,182.5c-6.3,4.9-15.9,7.9-26.2,7.9c-24.5,0-45.3-19.8-45.3-45.7s20.8-46.2,45.3-46.2c10.3,0,19.9,3.1,26.2,8v-7.2
			H710v89.7h-24.3V182.5z M637.9,144.7c0,13.5,10.3,24.1,23.6,24.1c14,0,24.5-10.7,24.5-24.1c0-13.3-11-24.1-24.5-24.1
			C648.2,120.6,637.9,131.4,637.9,144.7z"/>
	</g>
	<g>
		<path d="M777.5,161c0,5.2,3.7,12.2,16.6,12.2c9.1,0,13.3-4.2,13.3-8.4c0-5.8-6.8-7.2-15.7-8.6c-15.9-2.8-37.3-4.5-37.3-28.9
			c0-16.1,14.3-29,37.1-29c22.9,0,37.1,11.5,38.5,29.7h-24.3c-0.5-6.5-3-11.4-13.8-11.4c-7,0-12.8,2.3-12.8,7.9c0,6.6,9.3,8,20.1,10
			c15.4,2.8,34.1,5.9,34.1,26.1c0,21.3-17.8,30.3-40.4,30.3c-24.3,0-39.5-12.8-40.1-29.9H777.5z"/>
	</g>
	<g>
		<path d="M936,144.6c0,25.9-20.8,46.7-48.3,46.7c-27.6,0-48.1-20.5-48.1-46.7c0-26.1,20.6-46.9,48.1-46.9
			C915.2,97.7,936,118.5,936,144.6z M863.6,144.6c0,14.3,10,25,23.6,25c13.6,0,24.7-10.7,24.7-25c0-14.5-10.5-24.8-24.1-24.8
			C874,119.7,863.6,130,863.6,144.6z"/>
	</g>
	<g>
		<path d="M1031.5,168.4c-8.6,14-22,22.9-41.8,22.9c-27.8,0-47.4-20.8-47.4-46.7c0-26.1,19.6-46.9,47.4-46.9
			c19.8,0,33.6,9.4,42,23.4l-19.1,11.9c-4.7-7.5-10.8-13.1-22-13.1c-14.2,0-23.8,10-23.8,24.7c0,14.7,9.6,24.8,23.8,24.8
			c11.2,0,17.3-5.6,22-13.1L1031.5,168.4z"/>
	</g>
	<g>
		<path d="M1036.1,83L1036.1,83c0-7.6,6.2-13.7,13.7-13.7h2.4c7.6,0,13.7,6.2,13.7,13.7v0c0,7.6-6.2,13.7-13.7,13.7h-2.4
			C1042.2,96.8,1036.1,90.6,1036.1,83z M1038.8,189.2V99.4h24.3v89.7H1038.8z"/>
	</g>
	<g>
		<path d="M1142.9,182.5c-6.3,4.9-15.9,7.9-26.2,7.9c-24.5,0-45.3-19.8-45.3-45.7s20.8-46.2,45.3-46.2c10.3,0,19.9,3.1,26.2,8v-7.2
			h24.3v89.7h-24.3V182.5z M1095.2,144.7c0,13.5,10.3,24.1,23.6,24.1c14,0,24.5-10.7,24.5-24.1c0-13.3-11-24.1-24.5-24.1
			C1105.5,120.6,1095.2,131.4,1095.2,144.7z"/>
	</g>
	<g>
		<path d="M1177,189.2V69.3h24.5v119.8H1177z"/>
	</g>
	<g>
		<path d="M469.1,158.8c-3.4,22.6-25.5,32.5-45.7,32.5c-28.7,0-47.2-20.1-47.2-46.7c0-25.9,19.2-46.9,47.4-46.9
			c28.3,0,45.5,19.8,45.5,45.7c0,3.5,0,8.1,0,8.6l-68.9,0c2.6,11.4,11.2,18.7,23.8,18.7c11,0,18.7-4.7,23.8-11.9L469.1,158.8z
			 M401,133.9h43.6c-2.6-11-11.4-16.3-21.2-16.3C412.1,117.6,404.4,123.6,401,133.9z"/>
	</g>
</g>
</svg>
